<svg xmlns="http://www.w3.org/2000/svg" width="242" height="40" viewBox="0 0 242 40" fill="none">
  <g clip-path="url(#clip0_8_1350)">
    <path d="M54.6743 0.956055H80.3682L87.5386 1.25863L91.7213 2.77152L94.709 5.49472L95.904 7.31019L96.8003 10.0334V14.5721L95.6053 17.9004L94.4102 19.7159L92.3188 21.8339L89.9287 23.0442L86.0448 23.952H82.4596L83.6546 25.4649L84.2522 25.7675V26.3726L85.4472 26.9778L92.9164 34.5422L95.3065 36.6603L97.0991 38.4757V39.0809H88.1361L86.6423 37.8706L85.1485 36.3577L80.3682 31.5164L77.9781 29.3984L72.899 24.2546L70.5089 22.1365L66.0274 17.5978V17.2953L85.746 16.9927L88.4349 16.085L89.6299 14.8746L90.2275 13.0592L89.9287 10.0334L88.4349 8.21793L86.0448 7.61277L62.4422 7.31019V39.3835H54.9731L54.6743 39.0809V0.956055Z" fill="white" fill-opacity="0.7"/>
    <path d="M127.274 0.956055H156.553L156.255 2.46894L153.865 7.00761L129.067 7.31019L126.677 7.91535L125.183 8.82308L124.287 10.6386V13.6643L125.482 15.4798L127.573 16.3875L149.084 16.6901L153.267 17.9004L155.956 19.7159L158.047 22.1365L159.242 25.1623L159.541 28.4907L158.944 31.819L157.151 35.4499H156.553L155.956 36.6603L153.267 38.4757L151.773 39.0809L149.981 39.3835H118.909L120.403 36.3577L122.494 33.0293L147.889 32.7267L150.877 31.819L152.371 30.3061L152.669 29.3984V26.6752L151.773 24.8597L149.682 23.6494L147.889 23.3468L126.677 23.0442L123.988 22.1365L121.299 20.6236L119.208 18.203L118.013 15.7824L117.714 14.5721V10.0334L118.61 7.31019L120.403 4.58699L122.793 2.46894L125.482 1.25863L127.274 0.956055Z" fill="white" fill-opacity="0.7"/>
    <path d="M24.4988 1.25854H28.084L29.8766 2.46886L34.0593 9.12557L37.6445 14.8746L41.2297 20.6235L45.4124 27.2803L48.9976 33.0292L51.089 36.3576L52.5828 39.0808H44.8149L42.7235 36.055L38.8396 29.7009L35.2544 23.9519L30.7729 16.69L27.1877 10.941L26.5902 9.42815H25.9926L25.3951 10.941L20.9136 18.2029L19.121 21.2287L33.163 21.5313L32.5655 23.0442L29.8766 27.5828L29.5778 28.188H14.3408L13.7432 29.7009L10.158 35.7524L7.76792 39.3834H0L1.19506 36.9628L5.97532 29.3983L9.56051 23.6493L13.1457 17.9003L16.7309 12.1514L18.8223 8.823L22.4074 3.07401L24.4988 1.25854Z" fill="white" fill-opacity="0.7"/>
    <path d="M213.917 0.956055H216.307L218.099 1.86379L221.087 6.40246L225.569 13.6643L229.154 19.4133L231.843 23.6494L235.428 29.3984L237.519 32.7267L241.104 38.4757L241.403 39.3835H233.635L230.05 33.6345L227.361 29.0958L224.971 25.1623L220.788 18.203L216.606 11.2437L215.41 9.42824L213.319 12.454L209.734 18.5056L207.941 21.2288L222.282 21.5314L220.49 24.8597L218.398 27.8855L203.46 28.1881L199.576 34.5422L196.887 38.7783L196.588 39.0809H188.82L190.314 36.3577L193.899 30.6087L197.485 24.8597L199.576 21.5314L203.161 15.7824L205.252 12.454L208.838 6.70504L211.527 2.46894L213.02 1.25863L213.917 0.956055Z" fill="white" fill-opacity="0.7"/>
    <path d="M164.321 0.956055H198.68V7.00761H183.741V39.3835H176.571V7.00761H160.438L161.931 4.28441L164.321 0.956055Z" fill="white" fill-opacity="0.7"/>
    <path d="M103.971 0.956055H111.141V39.3835H103.971V0.956055Z" fill="white" fill-opacity="0.7"/>
  </g>
  <defs>
    <clipPath id="clip0_8_1350">
      <rect width="241.403" height="38.4274" fill="white" transform="translate(0 0.956055)"/>
    </clipPath>
  </defs>
</svg>