<svg xmlns="http://www.w3.org/2000/svg" width="152" height="44" viewBox="0 0 152 44" fill="none">
  <g clip-path="url(#clip0_8_1286)">
    <path d="M119.33 0.941162H124.049L126.054 1.30536L127.823 1.91236L129.357 2.76217L130.772 4.09757L131.834 5.67577L132.424 7.01117L132.896 8.83218L133.25 11.1388L133.368 12.717V16.966H111.073L111.427 20.7294L111.899 23.036L112.606 24.9784L113.432 26.1924L114.022 26.9208L115.32 27.892L116.853 28.6204L118.622 29.106L120.274 29.3488H123.695L126.054 28.9846L128.177 28.2562L129.947 27.285L131.362 26.3138L131.952 26.9208L133.014 28.3776L132.424 28.9846L130.89 29.9558L129.239 30.8056L127.116 31.534L125.464 31.8982L122.987 32.141H120.864L118.269 31.8982L115.791 31.2912L113.904 30.4414L112.606 29.5916L111.545 28.6204L110.483 27.1636L109.539 25.2212L108.95 23.4002L108.596 21.5792L108.36 19.2726V13.6882L108.714 10.7746L109.304 8.46798L109.893 7.01117L110.719 5.55437L111.663 4.34037L112.842 3.24777L114.494 2.27656L115.909 1.66956L117.679 1.18396L119.33 0.941162ZM120.392 3.49057L118.033 3.85477L116.263 4.46177L114.73 5.31157L113.55 6.40417L112.724 7.61817L112.253 8.58938L111.663 10.4104L111.309 12.3528L111.191 14.2952H130.654L130.536 11.8672L130.183 9.31778L129.593 7.49677L128.767 6.03997L127.941 5.19017L126.29 4.21897L124.638 3.73337L122.869 3.49057H120.392Z" fill="white" fill-opacity="0.7"/>
    <path d="M82.0547 1.66968H97.5075L99.5129 2.03388L101.4 2.76228L102.934 3.85488L103.995 5.06888L104.939 7.01129L105.411 9.07509L105.529 10.5319V11.9887L105.293 14.0525L104.821 15.8735L103.995 17.4517L103.17 18.5443L101.872 19.6369L100.221 20.4867L98.5692 20.9723L96.3279 21.2151H84.7678V31.5341H82.0547V1.66968ZM84.7678 4.46188V18.3015H97.0357L98.6871 17.9373L99.7488 17.4517L100.81 16.7233L101.754 15.5093L102.344 13.9311L102.58 12.7171V10.0463L102.108 8.10389L101.636 7.13269L100.575 5.91869L99.5129 5.19028L97.7434 4.58328L96.9177 4.46188H84.7678Z" fill="white" fill-opacity="0.7"/>
    <path d="M18.002 1.5481H20.951L21.0689 23.1573L21.4228 25.0997L22.1306 26.5565L22.9563 27.5277L24.1359 28.2561L25.7874 28.8631L28.0286 29.2273H32.0393L34.2805 28.8631L35.696 28.3775L36.8757 27.6491L37.4655 27.1635L38.2912 25.8281L38.763 24.1285L38.881 23.1573L38.9989 1.5481H41.83V21.7005L41.5941 24.7355L41.1222 26.6779L40.5324 28.1347L39.7067 29.2273L38.5271 30.3199L36.8757 31.1698L34.6344 31.7768L33.1009 32.0196L31.2135 32.141H28.8543L26.0233 31.8982L23.9 31.4125L22.3665 30.8055L20.951 29.9557L19.7714 28.7417L18.9456 27.2849L18.3558 25.3425L18.1199 23.7643L18.002 22.1861V1.5481Z" fill="white" fill-opacity="0.7"/>
    <path d="M57.047 0.941162H58.6984L61.7654 1.18396L63.6528 1.54816L65.5402 2.27656L66.6018 2.88357L67.7814 3.97617L68.4892 4.82597L69.3149 6.64697L69.6688 8.10378L69.9047 10.1676V31.534H67.0737L66.9557 10.896L66.7198 8.71078L66.2479 7.25397L65.4222 5.91857L64.1246 4.94737L62.7091 4.34037L61.0577 3.97617L60.2319 3.85477H55.6315L53.5082 4.21897L51.9747 4.82597L50.6771 5.67577L49.8514 6.88977L49.3796 8.10378L49.1436 9.19638L49.0257 10.4104L48.9077 31.534H46.1946L46.0767 31.4126V10.896L46.3126 8.34658L46.7844 6.28277L47.6101 4.58317L48.6718 3.36917L49.8514 2.51936L51.3849 1.79096L53.2723 1.30536L54.9237 1.06256L57.047 0.941162Z" fill="white" fill-opacity="0.7"/>
    <path d="M10.8064 1.5481H13.6375V28.3775L13.4016 30.8055L12.9297 32.6266L12.4579 33.7192L11.7501 34.8118L11.1603 35.5402L9.98071 36.39L8.44723 37.1184L6.67782 37.604L5.14433 37.8468L3.7288 37.9682H0.779785V35.176L4.20064 35.0546L6.20597 34.6904L7.73946 34.0834L8.68315 33.4764L9.27295 32.9908L9.98071 31.7768L10.4526 30.4413L10.6885 28.6203L10.8064 1.5481Z" fill="white" fill-opacity="0.7"/>
    <path d="M147.995 0.941162H149.646L151.534 1.06256V3.85477L149.646 3.73337H147.995L145.518 3.97617L143.63 4.46177L142.215 5.19017L141.271 6.03997L140.563 7.25397L140.091 9.07498L139.973 10.0462L139.855 31.534H137.024V10.4104L137.26 8.10378L137.732 6.16137L138.676 4.34037L139.973 3.00497L141.389 2.15516L143.158 1.54816L144.928 1.18396L147.995 0.941162Z" fill="white" fill-opacity="0.7"/>
    <path d="M74.623 1.66968H77.3361V31.5341H74.623V1.66968Z" fill="white" fill-opacity="0.7"/>
    <path d="M97.6255 34.9331H98.6871L100.575 41.0031L100.692 41.1245L102.58 35.0545L102.698 34.9331H103.641L105.057 39.3035L105.647 41.1245L107.062 36.7541L107.652 34.9331H108.714L108.36 36.2685L106.237 43.0669L106.119 43.3097H105.175L103.524 38.0895L103.17 37.1183L102.934 37.4825L101.164 43.1883L101.046 43.3097H100.103L98.2153 37.2397L97.6255 35.2973V34.9331Z" fill="white" fill-opacity="0.7"/>
    <path d="M112.135 34.8118H114.612L115.674 35.176L116.853 36.2686L117.325 37.4826L117.443 38.0896V40.032L116.971 41.6102L116.145 42.5814L114.966 43.1884L114.494 43.3098H112.135L110.837 42.8242L110.011 42.0958L109.54 41.1246L109.304 40.2748V37.8468L109.776 36.39L110.483 35.5402L111.663 34.9332L112.135 34.8118ZM112.607 35.783L111.309 36.2686L110.719 36.997L110.365 37.9682V40.1534L110.837 41.3674L111.663 42.0958L112.725 42.46H114.022L115.32 41.9744L116.145 41.0032L116.499 39.5464L116.381 37.9682L116.027 36.997L115.438 36.39L114.966 36.0258L114.14 35.783H112.607Z" fill="white" fill-opacity="0.7"/>
    <path d="M74.623 34.9331H75.8027L77.3361 37.1183L78.8696 39.3035L80.2852 41.2459L80.4031 34.9331H81.3468V43.1883H80.4031L79.4594 41.9743L77.9259 39.7891L76.6284 37.9681L75.6847 36.6327L75.5667 43.1883H74.623V34.9331Z" fill="white" fill-opacity="0.7"/>
    <path d="M118.977 34.9331H123.577L124.521 35.2973L124.993 35.9043L125.228 36.3899V38.2109L124.757 39.1821L124.049 39.6677L123.341 39.7891L125.111 42.9455V43.1883H124.049L122.869 41.1245L122.279 40.0319L119.92 39.9105V43.1883H118.977V34.9331ZM119.92 35.9043V38.9393H123.223L123.931 38.5751L124.285 37.8467V36.8755L123.931 36.2685L123.341 35.9043H119.92Z" fill="white" fill-opacity="0.7"/>
    <path d="M83.1162 34.9331H88.6604V35.9043H84.1779V38.4537H88.5424V39.4249H84.1779V42.3385H88.6604V43.1883H83.1162V34.9331Z" fill="white" fill-opacity="0.7"/>
    <path d="M135.963 34.8118H138.558L139.855 35.2974L140.091 35.4188L139.973 35.9044L139.501 36.39L138.204 35.9044H136.317L135.609 36.2686L135.373 36.7542L135.491 37.604L135.963 37.9682L137.85 38.4538L139.266 38.818L139.973 39.3036L140.445 39.9106L140.563 40.3962V41.3674L140.209 42.3386L139.501 42.9456L138.44 43.3098H136.081L134.547 42.8242L133.839 42.46L134.075 41.853L134.547 41.6102L135.963 42.2172L136.67 42.3386H137.85L139.03 41.9744L139.384 41.4888V40.3962L138.912 39.9106L137.85 39.5464L135.727 39.0608L134.783 38.5752L134.311 37.7254V36.2686L134.665 35.5402L135.255 35.0546L135.963 34.8118Z" fill="white" fill-opacity="0.7"/>
    <path d="M126.998 34.9331H127.941L128.059 39.0607L129.711 37.2397L130.772 36.0257L131.716 34.9331H132.896L132.66 35.4187L131.834 36.3899L130.3 38.0895L130.536 38.6965L133.367 43.0669V43.1883H132.188L131.244 41.8529L129.829 39.6677L129.357 39.1821L128.177 40.3961L128.059 40.6389L127.941 43.1883H126.998V34.9331Z" fill="white" fill-opacity="0.7"/>
    <path d="M89.7222 34.9331H96.6818V35.9043H93.7328V43.1883H92.6712V35.9043H89.7222V34.9331Z" fill="white" fill-opacity="0.7"/>
    <path d="M144.809 27.7705H146.225L146.933 28.2561L147.405 28.9845V30.3199L146.933 31.0483L146.343 31.5339L145.989 31.6553H145.045L144.338 31.2911L143.748 30.5627L143.63 30.1985V29.1059L144.102 28.2561L144.809 27.7705ZM145.045 28.1347L144.338 28.6203L143.984 29.7129L144.338 30.6841L145.045 31.1697H146.107L146.815 30.5627L147.051 30.0771L146.933 28.9845L146.461 28.3775L145.989 28.1347H145.045Z" fill="white" fill-opacity="0.7"/>
    <path d="M144.692 28.499H146.225L146.579 28.8632L146.461 29.713L146.343 30.1986L146.579 30.6842L145.989 30.8056L145.636 30.1986V29.9558H145.164V30.8056H144.692V28.499ZM145.164 28.9846V29.5916H145.872L146.107 29.106L145.989 28.9846H145.164Z" fill="white" fill-opacity="0.7"/>
  </g>
  <defs>
    <clipPath id="clip0_8_1286">
      <rect width="150.754" height="42.3687" fill="white" transform="translate(0.779785 0.941162)"/>
    </clipPath>
  </defs>
</svg>