<svg xmlns="http://www.w3.org/2000/svg" width="170" height="43" viewBox="0 0 170 43" fill="none">
  <g clip-path="url(#clip0_8_1304)">
    <path d="M19.7164 0H20.7778L24.08 1.9424L26.2029 3.27781L29.2692 5.09881L30.9204 6.07001L31.0383 17.7244L31.9818 18.3314L33.2791 19.0598L35.0481 20.1524L38.1145 21.9734L40.7091 23.5516V36.2987L37.7607 37.9983L34.9302 39.6979L32.3356 41.2761L30.5665 42.3687H29.5051L27.5002 41.1547L25.967 40.1835L23.1365 38.4839L20.5419 36.9057L19.8343 37.0271L16.768 38.8481H16.5321V39.0909L13.5837 40.7905L10.9891 42.3687H10.0456L8.04068 41.1547L4.97433 39.3337L1.90798 37.5127L0.374806 36.5415L0.0209961 36.2987V23.5516L1.20036 22.7018L4.50258 20.7594L7.56893 18.9384L9.57385 17.7244L9.69179 6.07001L12.5223 4.37041L15.5886 2.5494L18.4191 0.849802L19.7164 0ZM20.1881 1.821L17.3577 3.52061L15.8245 4.49181L12.7581 6.31281L11.3429 7.16261V16.7532L12.7581 16.0248L15.5886 14.3252L17.3577 13.2326L19.3626 12.0186L19.9523 11.6544L20.7778 11.7758L24.08 13.7182L26.2029 15.0536L29.0334 16.7532H29.2692V7.28401L28.2078 6.55561L26.085 5.34161L25.0235 4.61321L21.7213 2.6708L20.3061 1.821H20.1881ZM20.1881 13.4754L17.3577 15.175L15.2348 16.389L12.4043 18.0886L12.2864 18.3314L15.2348 20.031L16.5321 20.8808L19.3626 22.5804L20.3061 23.066L22.4289 21.852L25.2594 20.1524L27.0285 19.0598L28.2078 18.3314V18.0886L26.085 16.8746L25.3773 16.389L23.7262 15.5392L21.7213 14.3252L20.3061 13.4754H20.1881ZM11.3429 19.7882V29.3789L14.1734 31.0785L16.4142 32.4139L17.4756 33.1423L19.3626 34.2349H19.4805V24.6442L18.3011 23.9158L16.8859 23.066L14.0554 21.3664L11.4608 19.7882H11.3429ZM30.9204 19.7882V30.4715L30.3307 30.7143L27.0285 32.6567L25.3773 33.6279L24.08 34.3563L22.0751 35.5703L22.5469 36.0559L25.0235 37.5127L26.5567 38.4839L29.8589 40.4263L30.4486 40.3049L33.397 38.6053L35.284 37.3913L38.3503 35.5703L39.058 35.0847V24.6442L35.7557 22.7018L34.2226 21.7306L31.3921 20.031L30.9204 19.7882ZM9.57385 19.7882L8.15861 20.638L5.56401 22.2162L2.49766 24.0372L1.55417 24.6442V35.2061L4.50258 36.9057L7.33306 38.6053L8.63036 39.4551L10.2815 40.4263L10.8712 40.3049L13.8196 38.6053L15.8245 37.3913L18.4191 35.8131L18.3011 35.4489L17.1218 34.7205L15.4707 33.7493L14.0554 33.0209L11.225 31.3213L9.80972 30.4715L9.69179 19.7882H9.57385ZM29.1513 19.7882L26.4388 21.3664L24.9056 22.3376L23.8442 22.9446L22.311 23.9158L21.1316 24.6442V34.1135L21.8392 33.8707L24.6697 32.1711L26.7926 30.8357L29.2692 29.3789V19.7882H29.1513Z" fill="white" fill-opacity="0.7"/>
    <path d="M115.599 6.07007H120.552L122.203 8.61947L123.147 9.95488L124.326 11.7759L126.685 15.4179L127.274 16.5105L127.51 16.8747L127.628 6.07007H132.464V26.2225H127.628L127.038 25.1299L126.213 24.0373L122.793 18.6957L120.552 15.2965L120.316 15.0537L120.198 26.2225H115.599V6.07007Z" fill="white" fill-opacity="0.7"/>
    <path d="M46.7236 6.07007H56.5124L58.2814 6.43427L59.9325 7.28407L60.9939 8.25527L61.7016 9.22647L62.1733 10.4405L62.4092 11.8973V13.1113L62.1733 14.5681L61.5836 16.0249L61.3478 16.3891H61.1119L60.876 16.8747L60.0505 17.7245L58.989 18.3315L59.107 18.9385L61.1119 22.4591L62.6451 25.1299L63.1168 25.9797V26.2225H57.5738L56.6303 24.5229L55.0971 21.7307L53.7998 19.4241V19.1813H51.7949V26.2225H46.7236V6.07007ZM51.7949 10.1977V15.2965H55.4509L56.6303 14.6895L57.22 13.9611L57.4559 13.1113V12.2615L57.102 11.2903L56.1586 10.4405L55.333 10.1977H51.7949Z" fill="white" fill-opacity="0.7"/>
    <path d="M91.4219 6.07007H105.928V10.3191H96.4931V13.9611H104.395V18.2101H96.4931V21.9735H105.928V26.2225H91.4219V6.07007Z" fill="white" fill-opacity="0.7"/>
    <path d="M160.887 5.70581H162.302L164.543 6.07001L166.076 6.67701L167.255 7.40541L168.435 8.49802L169.024 9.46922L169.496 11.1688V13.8396H164.778L164.661 12.3828L164.189 11.2902L163.363 10.5618L162.42 10.1976H160.769L159.353 10.926L158.646 12.14L158.528 12.747V19.5454L159 20.8808L159.589 21.4878L160.415 21.9734L161.24 22.2162H162.066L163.245 21.852L164.189 21.1236L164.661 19.9096L164.778 18.5742H169.496V21.245L169.024 22.9446L167.845 24.6442L166.665 25.3726L165.132 26.101L163.717 26.4652L162.891 26.5866H160.533L158.528 26.2224L156.995 25.6154L155.697 24.887L155.108 24.28L154.164 23.1874L153.575 21.852L153.221 19.9096V12.6256L153.457 11.0474L154.282 9.10502L154.636 8.61942H154.872L155.108 8.13382L156.287 7.16261L157.938 6.31281L159.825 5.82721L160.887 5.70581Z" fill="white" fill-opacity="0.7"/>
    <path d="M142.606 5.70581H144.021L146.262 6.07001L147.795 6.67701L148.975 7.40541L150.036 8.37662L150.98 9.83342L151.333 11.1688V13.8396H146.498L146.262 12.0186L145.79 11.1688L145.083 10.5618L144.257 10.1976H142.488L141.073 10.926L140.483 11.7758L140.247 12.6256V19.6668L140.601 20.7594L141.191 21.4878L142.134 21.9734L143.078 22.2162H143.903L144.965 21.852L145.79 21.245L146.262 20.3952L146.498 18.4528H151.333V21.1236L150.98 22.459L150.39 23.673L149.682 24.5228L149.093 25.0084L146.852 26.101L145.437 26.4652L144.611 26.5866H142.252L140.247 26.2224L138.714 25.6154L137.535 24.887L136.355 23.7944L136.002 23.1874L135.412 21.852L135.058 20.1524V12.3828L135.412 10.5618L136.237 8.86222L137.181 7.76961L138.832 6.67701L140.365 6.07001L141.427 5.82721L142.606 5.70581Z" fill="white" fill-opacity="0.7"/>
    <path d="M73.3774 6.07007H83.2841L84.9352 6.43427L85.9966 6.91987L87.0581 7.64827L87.6478 8.13387L88.2374 8.86227L88.8271 10.0763L89.1809 11.6545V13.4755L88.8271 15.1751L88.2374 16.3891L87.2939 17.6031L86.3505 18.3315L85.1711 18.9385L83.8738 19.3027H78.4487V26.2225H73.3774V6.07007ZM78.4487 10.1977V15.2965H82.2227L83.2841 14.8109L83.9917 13.9611L84.2276 13.1113V12.2615L83.8738 11.2903L82.9303 10.4405L82.1047 10.1977H78.4487Z" fill="white" fill-opacity="0.7"/>
    <path d="M65.1221 6.07007H70.1933V26.2225H65.1221V6.07007Z" fill="white" fill-opacity="0.7"/>
    <path d="M69.9575 31.3213H74.557L75.3826 34.4777L76.2082 31.5641L76.3261 31.3213H77.0337L77.3875 32.2925L77.9772 34.2349L78.0951 34.3563L78.8028 31.5641L78.9207 31.3213H79.7462L79.5104 32.6567L78.5669 36.0559L78.4489 36.2987H77.7413L77.3875 35.3275L76.6799 32.7781L75.9723 35.2061L75.7364 36.2987H74.9109L73.8494 32.2925L73.7315 32.0497H72.3162V36.2987H71.4907V32.0497H69.9575V31.3213Z" fill="white" fill-opacity="0.7"/>
    <path d="M139.422 31.3213H140.365L141.781 33.5065L142.488 34.5991L142.606 31.3213H143.314V36.2987H142.488L140.837 33.7493L140.365 33.0209L140.247 36.2987H139.422V31.3213Z" fill="white" fill-opacity="0.7"/>
    <path d="M119.844 31.3213H120.788L121.967 33.1423L122.911 34.5991L123.029 31.3213H123.736V36.2987H122.911L120.906 33.1423L120.788 32.8995L120.67 36.2987H119.844V31.3213Z" fill="white" fill-opacity="0.7"/>
    <path d="M153.81 31.3213H154.636L155.579 32.6567L156.876 34.7205V31.3213H157.702V36.2987H156.876L155.933 34.9633L154.636 32.8995L154.518 36.2987H153.81V31.3213Z" fill="white" fill-opacity="0.7"/>
    <path d="M105.574 31.2H106.871L107.697 31.5642L108.287 32.2926L108.522 32.8996V34.5992L108.051 35.5704L107.343 36.1774L106.989 36.2988H105.574L104.63 35.8132L104.041 34.842L103.923 33.5066L104.159 32.414L104.63 31.6856L105.574 31.2ZM106.046 31.9284L105.456 32.1712L104.984 32.6568L104.748 33.5066L104.866 34.7206L105.456 35.3276L105.928 35.5704L106.989 35.449L107.579 34.7206L107.697 34.4778V33.1424L107.343 32.414L106.871 32.0498L106.046 31.9284Z" fill="white" fill-opacity="0.7"/>
    <path d="M62.0557 31.3213H62.9992L64.7682 34.1135L65.0041 34.7205H65.2399V31.3213H65.9476V36.2987H65.122L63.353 33.6279L62.8812 32.8995L62.7633 36.2987H62.0557V31.3213Z" fill="white" fill-opacity="0.7"/>
    <path d="M135.766 31.2H137.063L137.771 31.5642L138.479 32.414L138.597 32.8996V34.7206L138.125 35.6918L137.417 36.1774L137.063 36.2988H135.766L134.823 35.8132L134.351 35.0848L134.233 34.7206V32.7782L134.705 31.807L135.412 31.3214L135.766 31.2ZM136.12 31.9284L135.412 32.2926L135.058 32.8996V34.5992L135.412 35.2062L136.002 35.5704H136.828L137.181 35.449L137.771 34.5992V32.8996L137.181 32.1712L136.592 31.9284H136.12Z" fill="#F7F7F7" fill-opacity="0.7"/>
    <path d="M81.633 31.2H82.9303L83.8738 31.6856L84.2276 32.0498L84.4635 33.1424V34.3564L84.2276 35.449L83.4021 36.1774L83.0483 36.2988H81.5151L80.8075 35.9346L80.2178 35.2062L79.9819 34.3564V33.1424L80.3357 32.0498L81.0434 31.4428L81.633 31.2ZM81.9869 31.9284L81.1613 32.414L80.8075 33.3852V34.3564L81.2792 35.2062L81.8689 35.5704H82.6945L83.4021 35.0848L83.7559 34.3564V33.2638L83.2842 32.2926L82.5765 31.9284H81.9869Z" fill="white" fill-opacity="0.7"/>
    <path d="M100.621 31.2H101.8L102.744 31.6856L103.215 32.414L103.333 32.7782V34.7206L102.862 35.6918L102.154 36.1774L101.8 36.2988H100.503L99.5594 35.8132L99.0877 34.9634L98.9697 34.5992V32.8996L99.3235 32.0498L100.149 31.3214L100.621 31.2ZM100.857 31.9284L100.149 32.2926L99.7953 33.1424V34.4778L100.149 35.2062L100.739 35.5704H101.564L102.154 35.3276L102.508 34.5992L102.626 33.5066L102.39 32.6568L101.918 32.0498L100.857 31.9284Z" fill="white" fill-opacity="0.7"/>
    <path d="M113.358 31.3213H115.835L116.66 31.8069L117.132 32.4139L117.368 33.3851L117.25 34.7205L116.778 35.5703L115.835 36.1773L115.009 36.2987H113.358V31.3213ZM114.066 32.0497V35.5703L115.363 35.4489L115.953 35.0847L116.424 34.5991L116.542 33.6279L116.188 32.5353L115.363 32.0497H114.066Z" fill="white" fill-opacity="0.7"/>
    <path d="M162.302 31.3213H164.66L165.368 31.8069L165.486 32.0497V33.3851L164.896 33.9921H164.66L165.722 35.6917L165.84 36.2987H165.014L164.307 35.2061L163.835 34.3563L163.127 34.2349V36.2987H162.302V31.3213ZM163.127 32.0497V33.6279H164.071L164.543 33.3851L164.66 33.1423V32.4139L164.189 32.0497H163.127Z" fill="white" fill-opacity="0.7"/>
    <path d="M85.2891 31.3213H87.6478L88.2375 31.6855L88.4733 32.1711V33.3851L87.8837 33.9921H87.6478L88.4733 35.3275L88.8272 35.9345V36.2987H87.8837L86.8222 34.3563L86.1146 34.2349V36.2987H85.2891V31.3213ZM86.1146 32.0497V33.6279H87.0581L87.5299 33.3851L87.6478 33.1423V32.4139L87.176 32.0497H86.1146Z" fill="white" fill-opacity="0.7"/>
    <path d="M46.9595 31.3213H49.3182L50.0258 31.8069L50.1438 32.0497V33.3851L49.5541 33.9921H49.3182L50.3796 35.8131V36.2987H49.672L48.7285 34.7205L48.4926 34.3563L47.785 34.2349V36.2987H46.9595V31.3213ZM47.785 32.0497V33.6279H48.7285L49.3182 33.2637L49.4361 32.7781L49.0823 32.1711L48.8465 32.0497H47.785Z" fill="white" fill-opacity="0.7"/>
    <path d="M109.348 31.3213H111.589L112.297 31.8069L112.414 32.0497V33.5065L111.707 34.1135L112.768 35.8131V36.2987H111.943L110.999 34.7205L110.763 34.3563L110.056 34.2349V36.2987H109.348V31.3213ZM110.056 32.0497V33.6279H110.999L111.589 33.2637L111.707 32.6567L111.117 32.0497H110.056Z" fill="#F7F7F7" fill-opacity="0.7"/>
    <path d="M89.417 31.3213H90.1246L90.2425 33.2637L91.5398 31.8069L91.8937 31.3213H92.8371L92.6013 31.8069L91.7757 32.7781L91.304 33.3851L91.5398 33.9921L92.8371 35.8131V36.2987H92.1295L90.5964 34.2349L90.2425 34.3563L90.1246 36.2987H89.417V31.3213Z" fill="white" fill-opacity="0.7"/>
    <path d="M52.7388 31.3213H55.0975L55.8051 31.8069L56.041 32.4139V33.2637L55.6872 33.8707L55.0975 34.2349L54.6258 34.3563H53.5643V36.2987H52.7388V31.3213ZM53.5643 32.0497V33.7493H54.3899L55.0975 33.3851L55.2154 32.6567L54.6258 32.0497H53.5643Z" fill="white" fill-opacity="0.7"/>
    <path d="M125.977 31.3213H126.685L128.1 34.8419L128.454 35.6917V36.2987H127.746L127.392 35.3275L127.274 34.7205H125.505L125.387 35.3275L125.034 36.2987H124.208L124.326 35.5703L125.623 32.2925L125.977 31.3213ZM126.331 32.5353L125.859 33.7493V34.1135H127.038L126.449 32.5353H126.331Z" fill="white" fill-opacity="0.7"/>
    <path d="M56.7485 31.3213H59.4611V32.0497H57.5741V33.3851H59.3431V33.9921H57.5741V35.4489H59.4611V36.2987H56.7485V31.3213Z" fill="white" fill-opacity="0.7"/>
    <path d="M166.429 31.3213H169.142V32.0497H167.137V33.3851H169.024V33.9921H167.137V35.4489H169.142V36.2987H166.429V31.3213Z" fill="white" fill-opacity="0.7"/>
    <path d="M150.272 31.3213H152.985V32.0497H150.98V33.3851H152.867V33.9921H150.98V35.4489H152.985V36.2987H150.272V31.3213Z" fill="white" fill-opacity="0.7"/>
    <path d="M67.0088 31.3213H69.7213V32.0497H67.7164V33.3851H69.6034V33.9921H67.7164V35.4489H69.7213V36.2987H67.0088V31.3213Z" fill="white" fill-opacity="0.7"/>
    <path d="M147.56 31.2H148.857L149.564 31.4428L149.447 32.1712L147.913 32.0498L147.206 32.414L146.734 33.3852V34.3564L147.088 34.9634L147.442 35.3276L147.795 35.449H148.621L149.447 35.3276V36.1774L148.975 36.2988H147.324L146.616 35.9346L146.026 35.2062L145.791 34.4778V33.1424L146.144 32.1712L146.734 31.5642L147.56 31.2Z" fill="white" fill-opacity="0.7"/>
    <path d="M96.4929 31.2H97.9081L98.6158 31.4428L98.4978 32.0498L97.9081 32.1712L96.9647 32.0498L96.1391 32.414L95.7853 33.1424L95.6674 33.8708L95.9032 34.7206L96.4929 35.3276L97.5543 35.449L98.3799 35.3276V36.1774L97.9081 36.2988H96.375L95.4315 35.8132L94.8418 34.842V32.7782L95.1956 32.0498L95.9032 31.4428L96.4929 31.2Z" fill="#F7F7F7" fill-opacity="0.7"/>
    <path d="M128.336 31.3213H132.11V32.0497H130.577V36.2987H129.869V32.0497H128.336V31.3213Z" fill="white" fill-opacity="0.7"/>
    <path d="M158.174 31.3213H161.83V32.0497H160.415V36.2987H159.707V32.0497H158.174V31.3213Z" fill="white" fill-opacity="0.7"/>
    <path d="M132.582 31.3213H133.407V36.2987H132.582V31.3213Z" fill="white" fill-opacity="0.7"/>
    <path d="M118.193 31.3213H118.783V36.2987H118.193V31.3213Z" fill="white" fill-opacity="0.7"/>
    <path d="M51.0874 31.3213H51.6771V36.2987H51.0874V31.3213Z" fill="white" fill-opacity="0.7"/>
  </g>
  <defs>
    <clipPath id="clip0_8_1304">
      <rect width="169.475" height="42.3687" fill="white" transform="translate(0.0209961)"/>
    </clipPath>
  </defs>
</svg>