<svg xmlns="http://www.w3.org/2000/svg" width="18" height="23" viewBox="0 0 18 23" fill="none">
  <path fill-rule="evenodd" clip-rule="evenodd" d="M17.3299 9.24621C17.6914 6.82945 15.8514 5.53035 13.3354 4.66372L14.1516 1.39L12.1588 0.893438L11.3643 4.08096C10.8404 3.9503 10.3024 3.82718 9.76763 3.70512L10.5679 0.496561L8.57638 0L7.75972 3.27265C7.32619 3.17394 6.90037 3.07639 6.48725 2.9736L6.48956 2.9633L3.74143 2.27705L3.21131 4.40549C3.21131 4.40549 4.68981 4.74441 4.65866 4.76527C5.46563 4.96668 5.61157 5.50088 5.58733 5.92429L4.65759 9.65383C4.71316 9.66794 4.78524 9.68836 4.86477 9.72032L4.80682 9.70585C4.75767 9.69355 4.70658 9.68077 4.65413 9.66821L3.35094 14.8928C3.25232 15.1379 3.002 15.5059 2.4378 15.3661C2.45777 15.3951 0.989394 15.0047 0.989394 15.0047L0 17.2858L2.59332 17.9323C2.87727 18.0035 3.15787 18.0767 3.43563 18.1491C3.62979 18.1997 3.82257 18.2499 4.01412 18.2989L3.18948 21.6102L5.17998 22.1067L5.99664 18.8306C6.54042 18.9782 7.06814 19.1144 7.58476 19.2428L6.77086 22.5034L8.76376 23L9.58832 19.695C12.9865 20.3381 15.5416 20.0788 16.6171 17.0051C17.4838 14.5305 16.574 13.1031 14.7862 12.1723C16.0884 11.872 17.0691 11.0156 17.3306 9.24648L17.33 9.24604L17.3299 9.24621ZM12.777 15.6311C12.212 17.9015 8.65815 16.9628 7.03217 16.5334L7.03207 16.5334C6.88584 16.4947 6.75521 16.4602 6.64374 16.4325L7.73806 12.0457C7.87391 12.0796 8.03992 12.1169 8.22799 12.1591L8.22808 12.1591C9.90996 12.5365 13.3559 13.3099 12.7771 15.6311H12.777ZM8.5655 10.1229C9.9211 10.4847 12.8783 11.274 13.3934 9.21045H13.3935C13.9194 7.09999 11.0455 6.46371 9.64188 6.15294C9.48397 6.11798 9.34468 6.08714 9.23092 6.05879L8.23877 10.0374C8.33245 10.0608 8.44237 10.0901 8.5655 10.1229Z" fill="white"/>
</svg>