<svg xmlns="http://www.w3.org/2000/svg" width="22" height="24" viewBox="0 0 22 24" fill="none">
  <path d="M20.7231 16.3379V7.57211C20.7227 7.18781 20.6212 6.81037 20.4289 6.47765C20.2366 6.14494 19.9601 5.86865 19.6273 5.6765L11.9573 1.2936C11.6241 1.10126 11.2462 1 10.8615 1C10.4768 1 10.0989 1.10126 9.7658 1.2936L2.09573 5.6765C1.76291 5.86865 1.48648 6.14494 1.29416 6.47765C1.10184 6.81037 1.00039 7.18781 1 7.57211V16.3379C1.00039 16.7222 1.10184 17.0996 1.29416 17.4324C1.48648 17.7651 1.76291 18.0414 2.09573 18.2335L9.7658 22.6164C10.0989 22.8088 10.4768 22.91 10.8615 22.91C11.2462 22.91 11.6241 22.8088 11.9573 22.6164L19.6273 18.2335C19.9601 18.0414 20.2366 17.7651 20.4289 17.4324C20.6212 17.0996 20.7227 16.7222 20.7231 16.3379Z" stroke="white" stroke-width="2" stroke-linecap="round" stroke-linejoin="round"/>
  <path d="M1.2959 6.43262L10.8616 11.966L20.4273 6.43262" stroke="white" stroke-width="2" stroke-linecap="round" stroke-linejoin="round"/>
  <path d="M10.8613 23V11.9551" stroke="white" stroke-width="2" stroke-linecap="round" stroke-linejoin="round"/>
</svg>