<svg xmlns="http://www.w3.org/2000/svg" width="21" height="22" viewBox="0 0 21 22" fill="none">
  <path d="M7.875 8.9375C7.875 8.17824 7.28725 7.5625 6.5625 7.5625H5.90625C4.45635 7.5625 3.28125 8.79355 3.28125 10.3125V12.375C3.28125 13.8939 4.45635 15.125 5.90625 15.125H6.5625C7.28725 15.125 7.875 14.5093 7.875 13.75V8.9375ZM15.0938 15.125C16.5437 15.125 17.7188 13.8939 17.7188 12.375V10.3125C17.7188 8.79355 16.5437 7.5625 15.0938 7.5625H14.4375C13.7128 7.5625 13.125 8.17824 13.125 8.9375V13.75C13.125 14.5093 13.7128 15.125 14.4375 15.125H15.0938ZM10.5 0C4.64215 0 0.187852 5.10598 0 11V11.6875C0 12.0673 0.293672 12.375 0.65625 12.375H1.3125C1.67508 12.375 1.96875 12.0673 1.96875 11.6875V11C1.96875 6.07191 5.79592 2.0625 10.5 2.0625C15.2041 2.0625 19.0312 6.07191 19.0312 11H19.0263C19.0296 11.1044 19.0312 18.1208 19.0312 18.1208C19.0312 19.1241 18.2548 19.9375 17.2971 19.9375H13.125C13.125 18.7984 12.2436 17.875 11.1562 17.875H9.84375C8.75643 17.875 7.875 18.7984 7.875 19.9375C7.875 21.0766 8.75643 22 9.84375 22H17.2971C19.3421 22 21 20.2632 21 18.1208V11C20.8121 5.10598 16.3579 0 10.5 0Z" fill="white"/>
</svg>